<?xml version="1.0" standalone="no"?>
<!DOCTYPE svg PUBLIC "-//W3C//DTD SVG 20010904//EN"
 "http://www.w3.org/TR/2001/REC-SVG-20010904/DTD/svg10.dtd">
<svg version="1.0" xmlns="http://www.w3.org/2000/svg"
 width="73.000000pt" height="73.000000pt" viewBox="0 0 73.000000 73.000000"
 preserveAspectRatio="xMidYMid meet">
<metadata>
Created by potrace 1.11, written by Peter Selinger 2001-2013
</metadata>
<g transform="translate(0.000000,73.000000) scale(0.100000,-0.100000)"
fill="#000000" stroke="none">
<path d="M0 365 l0 -365 365 0 365 0 0 365 0 365 -365 0 -365 0 0 -365z m550
268 c0 -7 9 -13 20 -13 25 0 25 5 0 30 -12 12 -17 26 -14 32 6 9 9 9 12 0 2
-7 10 -12 17 -12 14 0 33 -125 21 -137 -3 -4 -6 1 -6 10 0 10 -7 17 -15 17 -8
0 -24 9 -35 20 -24 24 -31 25 -23 4 5 -14 3 -15 -15 -5 -28 15 -35 14 -28 -4
3 -10 -1 -15 -13 -15 -10 0 -18 6 -19 13 0 6 -4 31 -8 53 -4 26 -2 44 5 48 12
7 51 -10 50 -22 -3 -21 3 -32 17 -32 11 0 14 5 9 18 -4 9 -9 26 -12 37 -4 17
-2 17 16 -5 11 -14 21 -31 21 -37z m-130 31 c0 -11 -6 -14 -20 -9 -21 7 -24
-2 -14 -29 3 -9 10 -13 15 -10 5 3 6 -2 3 -10 -3 -9 -12 -12 -22 -8 -15 5 -15
3 1 -21 12 -19 14 -27 5 -27 -13 1 -48 65 -48 88 0 6 5 14 12 18 7 5 9 2 4 -7
-4 -8 -1 -6 8 5 8 10 22 16 31 13 8 -4 15 -2 15 3 0 6 2 10 5 10 3 0 5 -7 5
-16z m-107 -44 c-6 -22 -18 -26 -28 -10 -8 13 3 30 20 30 8 0 11 -7 8 -20z
m-86 -32 c-3 -8 -6 -5 -6 6 -1 11 2 17 5 13 3 -3 4 -12 1 -19z m123 -1 c0 -7
-4 -6 -10 3 -6 10 -10 11 -10 3 0 -7 -8 -13 -17 -13 -15 0 -14 2 2 14 21 15
35 12 35 -7z m62 -412 c-2 -14 -9 -25 -14 -25 -6 0 -7 7 -4 16 5 14 4 15 -9 4
-8 -7 -12 -17 -8 -23 4 -6 0 -8 -10 -4 -10 4 -17 1 -18 -6 0 -9 -2 -9 -6 1 -2
6 -11 12 -19 12 -8 0 -14 -6 -14 -12 0 -9 -4 -8 -10 2 -15 23 -12 27 18 28 21
0 83 20 98 31 1 1 -1 -10 -4 -24z m-137 -15 c3 -5 2 -10 -4 -10 -5 0 -13 5
-16 10 -3 6 -2 10 4 10 5 0 13 -4 16 -10z"/>
<path d="M570 591 c0 -25 6 -27 13 -6 4 8 2 17 -3 20 -6 4 -10 -3 -10 -14z"/>
</g>
</svg>
